<svg xmlns="http://www.w3.org/2000/svg" version="1.1" xmlns:xlink="http://www.w3.org/1999/xlink" xmlns:svgjs="http://svgjs.dev/svgjs" width="100%" height="100%" viewBox="0 0 1000 600"><rect width="1000" height="600" x="0" y="0" fill="#0000"/><g><rect width="333.3333333333333" height="333.3333333333333" rx="13.333333333333334" ry="13.333333333333334" y="334.82266344434504" fill="#05888" transform="matrix(0.3998713971464529,0,0,0.39987139714645287,0,99.46873523342151)" x="312.6004333496094"/><path d="M420.9811094899564 426.48934002553233L477.79929076080447 426.48934002553233Q500.74752286297473 426.48934002553233 514.6048459618094 438.2948954673641Q528.462169060644 450.13201656545743 528.462169060644 470.3656022291317L528.462169060644 470.3656022291317Q528.462169060644 490.5676222365443 514.478583336763 501.8365615219292Q500.5265632691437 513.0739351510524 477.5467655107118 513.0739351510524L477.5467655107118 513.0739351510524L475.9684826976327 514.2102987764695L439.1629274966278 514.2102987764695L439.1629274966278 576.4893385805713L420.9811094899564 576.4893385805713L420.9811094899564 426.48934002553233ZM439.1629274966278 497.164844395215L477.5467655107118 497.164844395215Q493.7083815166419 497.164844395215 501.5366642695143 490.4729252677596Q509.36494702238673 483.74944048404257 509.36494702238673 470.3656022291317L509.36494702238673 470.3656022291317Q509.36494702238673 456.95019831795923 501.5366642695143 450.2267135342422Q493.7083815166419 443.5347944067868 477.5467655107118 443.5347944067868L477.5467655107118 443.5347944067868L439.1629274966278 443.5347944067868L439.1629274966278 497.164844395215ZM472.78035141521286 510.80120790021857L488.0265633895571 500.794894865297L537.5530780639797 576.4893385805713L515.9621691810573 576.4893385805713L472.78035141521286 510.80120790021857Z " fill="#dda000" transform="matrix(0.3998713971464529,0,0,0.39987139714645287,0,99.46873523342151)"/><path d="M729.2670934183558 444.2525100995101L778.6091941409941 444.2525100995101Q798.5379203773041 444.2525100995101 810.5719104979919 454.50470213854715Q822.6059006186799 464.7843064557635 822.6059006186799 482.3555767686586L822.6059006186799 482.3555767686586Q822.6059006186799 499.8994348033744 810.462261385275 509.6856181133643Q798.3460344300494 519.4443891451749 778.3898959155601 519.4443891451749L778.3898959155601 519.4443891451749L777.0192820065979 520.4312311596277L745.0565656496001 520.4312311596277L745.0565656496001 574.5156560072752L729.2670934183558 574.5156560072752L729.2670934183558 444.2525100995101ZM745.0565656496001 505.6286009428363L778.3898959155601 505.6286009428363Q792.4249823433328 505.6286009428363 799.2232273317852 499.81719796883664Q806.0214723202375 493.9783827166578 806.0214723202375 482.3555767686586L806.0214723202375 482.3555767686586Q806.0214723202375 470.7053585424801 799.2232273317852 464.8665432903012Q792.4249823433328 459.0551403163016 778.3898959155601 459.0551403163016L778.3898959155601 459.0551403163016L745.0565656496001 459.0551403163016L745.0565656496001 505.6286009428363ZM774.2506419104943 517.4707051162695L787.490772271069 508.7810129334493L830.500636734302 574.5156560072752L811.7506384596994 574.5156560072752L774.2506419104943 517.4707051162695ZM898.4008497842881 473.85777053309306L898.4008497842881 473.85777053309306Q912.4085239338815 473.85777053309306 923.1815492583241 479.9707085670644Q933.9271623045877 486.0836466010357 940.040100338559 497.6516279926764Q946.1530383725303 509.19219710613794 946.1530383725303 525.1735552846369L946.1530383725303 525.1735552846369Q946.1530383725303 541.1549134631358 940.040100338559 552.6954825765973Q933.9271623045877 564.263463968238 923.1815492583241 570.3764020022094Q912.4085239338815 576.4893400361807 898.4008497842881 576.4893400361807L898.4008497842881 576.4893400361807Q884.5850615819494 576.4893400361807 873.729799422969 570.3764020022094Q862.8745372639885 564.263463968238 856.7615992300173 552.6954825765973Q850.648661196046 541.1549134631358 850.648661196046 525.1735552846369L850.648661196046 525.1735552846369Q850.648661196046 509.19219710613794 856.7615992300173 497.6516279926764Q862.8745372639885 486.0836466010357 873.729799422969 479.9707085670644Q884.5850615819494 473.85777053309306 898.4008497842881 473.85777053309306ZM898.4008497842881 487.4816727881771L898.4008497842881 487.4816727881771Q888.3405436925058 487.4816727881771 881.2407636440817 492.00469868775224Q874.1135713174783 496.5551368655067 870.2758523723843 504.9432939883552Q866.4381334272903 513.3314511112037 866.4381334272903 525.1735552846369L866.4381334272903 525.1735552846369Q866.4381334272903 536.8237735108154 870.2758523723843 545.2941674682016Q874.1135713174783 553.7919737037671 881.2407636440817 558.3424118815215Q888.3405436925058 562.8654377810967 898.4008497842881 562.8654377810967L898.4008497842881 562.8654377810967Q908.4611558760705 562.8654377810967 915.5609359244945 558.3424118815215Q922.6881282510979 553.7919737037671 926.5258471961919 545.2941674682016Q930.363566141286 536.8237735108154 930.363566141286 525.1735552846369L930.363566141286 525.1735552846369Q930.363566141286 513.3314511112037 926.5258471961919 504.9432939883552Q922.6881282510979 496.5551368655067 915.5609359244945 492.00469868775224Q908.4611558760705 487.4816727881771 898.4008497842881 487.4816727881771ZM1011.5039095518467 576.4893400361807L1011.5039095518467 576.4893400361807Q997.0850512295647 576.4893400361807 984.9414119961598 570.3764020022094Q972.7977727627549 564.263463968238 966.3010628342743 552.997017636569L966.3010628342743 552.997017636569L979.7056668639243 543.3204834392961Q984.0642190944241 552.4213597948049 992.4523762172726 557.5474558143235Q1000.840533340121 562.673551833842 1012.6826375135543 562.673551833842L1012.6826375135543 562.673551833842Q1023.1267154998459 562.673551833842 1029.0477675865625 558.6165346633139Q1034.968819673279 554.5869297709652 1034.968819673279 548.0628075643052L1034.968819673279 548.0628075643052Q1034.968819673279 543.9235535592395 1032.3098286898926 540.4696065086548Q1029.650837706506 537.0156594580701 1022.1398734853933 535.4257473236739L1022.1398734853933 535.4257473236739L998.4556651385269 530.4915372514101Q984.0642190944241 527.5310112080518 977.8416319477357 520.6231171068825Q971.6190448010475 513.7152230057131 971.6190448010475 503.46303096667606L971.6190448010475 503.46303096667606Q971.6190448010475 495.3764089037992 976.2517198133396 488.66040074988456Q980.911807103811 481.9443925959699 989.4918501739141 477.9147877036211Q998.0718932440175 473.85777053309306 1009.7221114701958 473.85777053309306L1009.7221114701958 473.85777053309306Q1024.3328557397326 473.85777053309306 1034.393161831515 479.58693667255494Q1044.4534679232975 485.3161028120169 1049.3876779955613 495.7601807983086L1049.3876779955613 495.7601807983086L1036.1749599131658 504.4498729811288Q1032.803249697119 495.7601807983086 1025.3196977541854 491.7305759059598Q1017.8087335330728 487.6735587354318 1009.7221114701958 487.6735587354318L1009.7221114701958 487.6735587354318Q1002.6223314217718 487.6735587354318 997.578472236791 489.6472427643373Q992.5346130518102 491.62092679324286 989.8756220684236 495.0748738438275Q987.2166310850371 498.5288208944122 987.2166310850371 502.8599608467327L987.2166310850371 502.8599608467327Q987.2166310850371 507.2185130772324 990.1771571283953 510.8643460750718Q993.1376831717537 514.5101790729111 1001.2243052346305 516.1000912073073L1001.2243052346305 516.1000912073073L1025.8953555959495 521.2261872268258Q1039.7111437982883 523.9948273229294 1045.2484239904954 530.2996513041554Q1050.7582919045235 536.6318875635607 1050.7582919045235 545.7053516408903L1050.7582919045235 545.7053516408903Q1050.7582919045235 554.9707016654745 1045.8240818322597 561.9882448793609Q1040.8898717599957 568.9783758150679 1032.008293629921 572.7338579256243Q1023.1267154998459 576.4893400361807 1011.5039095518467 576.4893400361807ZM1137.6003891763667 538.0025014725229L1137.6003891763667 510.7546969623548Q1137.6003891763667 499.7075488561197 1131.6793370896503 493.7042599348654Q1125.7582850029335 487.6735587354318 1114.9030228439533 487.6735587354318L1114.9030228439533 487.6735587354318Q1104.650830804916 487.6735587354318 1097.551050756492 492.1143478004692Q1090.451270708068 496.5551368655067 1087.079560492021 506.4235570100343L1087.079560492021 506.4235570100343L1074.250614304135 498.5288208944122Q1078.1979823619463 487.4816727881771 1088.8613585736719 480.65601552154544Q1099.5247347853976 473.85777053309306 1115.3142070166418 473.85777053309306L1115.3142070166418 473.85777053309306Q1125.9775832283676 473.85777053309306 1134.6398631330085 477.5036035309324Q1143.3295553158287 481.14943652877184 1148.3734145008093 488.5507516371676Q1153.389861407611 495.95206674556334 1153.389861407611 507.6022849717418L1153.389861407611 507.6022849717418L1153.389861407611 555.3818858381632Q1153.389861407611 562.4816658865873 1160.9008256287239 562.4816658865873L1160.9008256287239 562.4816658865873Q1164.6563077392802 562.4816658865873 1168.1924916244025 561.4948238721345L1168.1924916244025 561.4948238721345L1167.4249478353836 573.9125858873318Q1163.4775797775726 575.8862699162373 1157.1453435181675 575.8862699162373L1157.1453435181675 575.8862699162373Q1151.4161773787055 575.8862699162373 1146.8931514791302 573.7206999400771Q1142.3427133013759 571.5551299639169 1139.7933714307062 567.1143408988794Q1137.2166172818575 562.673551833842 1137.2166172818575 555.9575436799273L1137.2166172818575 555.9575436799273L1137.2166172818575 553.9838596510218L1141.1639853396684 554.5869297709652Q1138.8065294162534 562.2897799393326 1133.0773632767916 567.1143408988794Q1127.3481971373296 571.9389018584262 1120.2484170889056 574.2141209473035Q1113.1486370404816 576.4893400361807 1106.2407429393122 576.4893400361807L1106.2407429393122 576.4893400361807Q1097.551050756492 576.4893400361807 1090.0400865353793 573.5288139928224Q1082.5565345924458 570.5682879494641 1078.1157455274083 564.5375867500305Q1073.674956462371 558.5342978287762 1073.674956462371 549.6527196987013L1073.674956462371 549.6527196987013Q1073.674956462371 538.6055715924662 1081.0762715707667 531.3961424313252Q1088.4775866791624 524.1867132701841 1101.6903047615579 521.6099591213352L1101.6903047615579 521.6099591213352L1140.780213445159 513.9345212311471L1140.780213445159 526.9553533662877L1108.9819707572367 533.4520632947683Q1099.3328488381428 535.4257473236739 1094.5905247131338 538.9893434869756Q1089.8482005881247 542.5529396502773 1089.8482005881247 548.8577636315033L1089.8482005881247 548.8577636315033Q1089.8482005881247 554.9707016654745 1094.6727615476716 558.8358328887479Q1099.5247347853976 562.673551833842 1108.4063129154724 562.673551833842L1108.4063129154724 562.673551833842Q1114.1354790549344 562.673551833842 1119.3438119089906 561.1932888121628Q1124.579557041226 559.7130257904837 1128.7188110462919 556.6428506344084Q1132.885477329537 553.6000877565124 1135.2429332529518 548.9674127442202Q1137.6003891763667 544.3073254537488 1137.6003891763667 538.0025014725229L1137.6003891763667 538.0025014725229ZM1207.4742862552584 574.5156560072752L1191.6848140240143 574.5156560072752L1191.6848140240143 475.8314545619986L1205.5006022263528 475.8314545619986L1206.8986284134944 497.92575077446884L1204.3218742646454 495.7601807983086Q1207.4742862552584 487.8654446826865 1212.819680500211 483.04088372313964Q1218.1376624669842 478.18891048541354 1225.1552056808705 476.02334050925333Q1232.1453366165774 473.85777053309306 1239.6563008376902 473.85777053309306L1239.6563008376902 473.85777053309306Q1250.319677049416 473.85777053309306 1258.9819569540568 477.9147877036211Q1267.671649136877 481.9443925959699 1272.9073942691125 490.2503128842807Q1278.1431394013482 498.5288208944122 1278.1431394013482 511.35776708229815L1278.1431394013482 511.35776708229815L1278.1431394013482 574.5156560072752L1262.353667170104 574.5156560072752L1262.353667170104 516.8950472745054Q1262.353667170104 500.50250492331776 1255.3361239562178 494.08803182937476Q1248.3459930205104 487.6735587354318 1238.0663887032943 487.6735587354318L1238.0663887032943 487.6735587354318Q1230.96660865487 487.6735587354318 1223.866828606446 491.0178566732995Q1216.767048558022 494.38956688934644 1212.1069612675506 501.87311883227994Q1207.4742862552584 509.3840830533926 1207.4742862552584 522.0211432940239L1207.4742862552584 522.0211432940239L1207.4742862552584 574.5156560072752ZM1355.116816528664 576.4893400361807L1355.116816528664 576.4893400361807Q1341.1091423790704 576.4893400361807 1330.1442311073731 570.3764020022094Q1319.1793198356756 564.263463968238 1313.0663818017042 552.6954825765973Q1306.953443767733 541.1549134631358 1306.953443767733 525.1735552846369L1306.953443767733 525.1735552846369Q1306.953443767733 509.19219710613794 1313.0663818017042 497.6516279926764Q1319.1793198356756 486.0836466010357 1329.8426960474014 479.9707085670644Q1340.506072259127 473.85777053309306 1354.129974514211 473.85777053309306L1354.129974514211 473.85777053309306Q1367.9457627165498 473.85777053309306 1377.7045337483605 479.77882261980966Q1387.4907170583504 485.69987470652626 1392.616813077869 495.8698299110256Q1397.7429090973874 506.0397851155249 1397.7429090973874 518.6494330779769L1397.7429090973874 518.6494330779769Q1397.7429090973874 522.0211432940239 1397.5510231501328 524.7897833901275Q1397.3591372028782 527.5310112080518 1396.9479530301894 529.7239934623913L1396.9479530301894 529.7239934623913L1317.20563580677 529.7239934623913L1317.20563580677 515.6889070346186L1390.0400589290202 515.6889070346186L1381.9534368661434 517.2788191690147Q1381.9534368661434 503.0792590721666 1374.168349863238 495.3764089037992Q1366.3558505821536 487.6735587354318 1353.7187903415224 487.6735587354318L1353.7187903415224 487.6735587354318Q1344.0696684224288 487.6735587354318 1337.0521252085423 492.1143478004692Q1330.034581994656 496.5551368655067 1326.1968630495621 504.9432939883552Q1322.3591441044678 513.3314511112037 1322.3591441044678 525.1735552846369L1322.3591441044678 525.1735552846369Q1322.3591441044678 536.8237735108154 1326.306512162279 545.2941674682016Q1330.2538802200902 553.7919737037671 1337.4358971030517 558.2327627688045Q1344.645326264193 562.673551833842 1354.705632355975 562.673551833842L1354.705632355975 562.673551833842Q1365.5608945149556 562.673551833842 1372.3865517815873 558.5342978287762Q1379.1847967700396 554.3950438237105 1383.3240507751054 547.2678514971071L1383.3240507751054 547.2678514971071L1395.7692250684818 554.5869297709652Q1392.0137429579256 561.3029379248799 1386.2023399839259 566.2371479971437Q1380.3635247317472 571.1713580694075 1372.578437728842 573.8303490527941Q1364.7933507259368 576.4893400361807 1355.116816528664 576.4893400361807ZM1525.0455289617944 574.5156560072752L1430.6924674688382 574.5156560072752L1430.6924674688382 444.2525100995101L1522.0850029184357 444.2525100995101L1522.0850029184357 459.0551403163016L1446.4819397000824 459.0551403163016L1446.4819397000824 501.10557504326107L1505.308688672739 501.10557504326107L1505.308688672739 515.9082052600526L1446.4819397000824 515.9082052600526L1446.4819397000824 559.7130257904837L1525.0455289617944 559.7130257904837L1525.0455289617944 574.5156560072752ZM1589.1902599012242 576.4893400361807L1589.1902599012242 576.4893400361807Q1574.771401578942 576.4893400361807 1562.6551746237164 570.3764020022094Q1550.5115353903116 564.263463968238 1543.9874131836516 552.997017636569L1543.9874131836516 552.997017636569L1557.419429491481 543.3204834392961Q1561.7505694438014 552.4213597948049 1570.13872656665 557.5474558143235Q1578.5268836894984 562.673551833842 1590.3689878629316 562.673551833842L1590.3689878629316 562.673551833842Q1600.8404781274025 562.673551833842 1606.761530214119 558.6165346633139Q1612.6825823008357 554.5869297709652 1612.6825823008357 548.0628075643052L1612.6825823008357 548.0628075643052Q1612.6825823008357 543.9235535592395 1610.023591317449 540.4696065086548Q1607.3371880558834 537.0156594580701 1599.8536361129497 535.4257473236739L1599.8536361129497 535.4257473236739L1576.1694277660833 530.4915372514101Q1561.7505694438014 527.5310112080518 1555.5279822971129 520.6231171068825Q1549.3328074286042 513.7152230057131 1549.3328074286042 503.46303096667606L1549.3328074286042 503.46303096667606Q1549.3328074286042 495.3764089037992 1553.9654824408963 488.66040074988456Q1558.5981574531884 481.9443925959699 1567.1782005232915 477.9147877036211Q1575.7582435933946 473.85777053309306 1587.4084618195732 473.85777053309306L1587.4084618195732 473.85777053309306Q1602.01920608911 473.85777053309306 1612.0795121808924 479.58693667255494Q1622.1398182726748 485.3161028120169 1627.0740283449386 495.7601807983086L1627.0740283449386 495.7601807983086L1613.8613102625432 504.4498729811288Q1610.5170123246753 495.7601807983086 1603.0060481035625 491.7305759059598Q1595.49508388245 487.6735587354318 1587.4084618195732 487.6735587354318L1587.4084618195732 487.6735587354318Q1580.3086817711492 487.6735587354318 1575.264822586168 489.6472427643373Q1570.2483756793667 491.62092679324286 1567.5893846959802 495.0748738438275Q1564.9029814344144 498.5288208944122 1564.9029814344144 502.8599608467327L1564.9029814344144 502.8599608467327Q1564.9029814344144 507.2185130772324 1567.8635074777726 510.8643460750718Q1570.8240335211308 514.5101790729111 1578.938067862187 516.1000912073073L1578.938067862187 516.1000912073073L1603.6091182235061 521.2261872268258Q1617.4249064258447 523.9948273229294 1622.9347743398728 530.2996513041554Q1628.47205453208 536.6318875635607 1628.47205453208 545.7053516408903L1628.47205453208 545.7053516408903Q1628.47205453208 554.9707016654745 1623.5378444598161 561.9882448793609Q1618.6036343875521 568.9783758150679 1609.7220562574776 572.7338579256243Q1600.8404781274025 576.4893400361807 1589.1902599012242 576.4893400361807ZM1665.177095014087 452.1472462151322L1680.9665672453311 447.8161062628118L1680.9665672453311 547.2678514971071Q1680.9665672453311 554.5869297709652 1685.1058212503972 558.1231136560875Q1689.2450752554628 561.6867098193892 1695.7691974621227 561.6867098193892L1695.7691974621227 561.6867098193892Q1701.4983636015845 561.6867098193892 1705.63761760665 559.7130257904837Q1709.7768716117162 557.7393417615781 1713.148581827763 554.3950438237105L1713.148581827763 554.3950438237105L1718.658449741791 567.6077619061058Q1714.135423842216 571.7470159111716 1707.9128366955276 574.1318841127658Q1701.6902495488393 576.4893400361807 1693.6036274859625 576.4893400361807L1693.6036274859625 576.4893400361807Q1686.0926632648498 576.4893400361807 1679.595953336369 573.8303490527941Q1673.0718311297092 571.1713580694075 1669.234112184615 565.3325428172286Q1665.3689809613415 559.521139843229 1665.177095014087 550.0364915932107L1665.177095014087 550.0364915932107L1665.177095014087 452.1472462151322ZM1645.4402547250315 475.8314545619986L1716.87665166014 475.8314545619986L1716.87665166014 489.4553568170826L1645.4402547250315 489.4553568170826L1645.4402547250315 475.8314545619986ZM1781.624452719513 576.4893400361807L1781.624452719513 576.4893400361807Q1767.61677856992 576.4893400361807 1756.6518672982224 570.3764020022094Q1745.7143683047043 564.263463968238 1739.5740179925538 552.6954825765973Q1733.4610799585826 541.1549134631358 1733.4610799585826 525.1735552846369L1733.4610799585826 525.1735552846369Q1733.4610799585826 509.19219710613794 1739.5740179925538 497.6516279926764Q1745.7143683047043 486.0836466010357 1756.3503322382508 479.9707085670644Q1767.0137084499765 473.85777053309306 1780.6376107050605 473.85777053309306L1780.6376107050605 473.85777053309306Q1794.4533989073993 473.85777053309306 1804.21216993921 479.77882261980966Q1813.9983532491997 485.69987470652626 1819.1244492687183 495.8698299110256Q1824.250545288237 506.0397851155249 1824.250545288237 518.6494330779769L1824.250545288237 518.6494330779769Q1824.250545288237 522.0211432940239 1824.058659340982 524.7897833901275Q1823.8667733937273 527.5310112080518 1823.4555892210387 529.7239934623913L1823.4555892210387 529.7239934623913L1743.7406842757987 529.7239934623913L1743.7406842757987 515.6889070346186L1816.5476951198693 515.6889070346186L1808.461073056993 517.2788191690147Q1808.461073056993 503.0792590721666 1800.6759860540874 495.3764089037992Q1792.863486773003 487.6735587354318 1780.2538388105513 487.6735587354318L1780.2538388105513 487.6735587354318Q1770.577304613278 487.6735587354318 1763.5597613993918 492.1143478004692Q1756.569630463685 496.5551368655067 1752.7044992404112 504.9432939883552Q1748.8667802953173 513.3314511112037 1748.8667802953173 525.1735552846369L1748.8667802953173 525.1735552846369Q1748.8667802953173 536.8237735108154 1752.8141483531285 545.2941674682016Q1756.7615164109397 553.7919737037671 1763.9709455720804 558.2327627688045Q1771.1529624550421 562.673551833842 1781.240680825004 562.673551833842L1781.240680825004 562.673551833842Q1792.0959429839845 562.673551833842 1798.8941879724366 558.5342978287762Q1805.6924329608892 554.3950438237105 1809.859099244134 547.2678514971071L1809.859099244134 547.2678514971071L1822.2768612593313 554.5869297709652Q1818.521379148775 561.3029379248799 1812.7099761747754 566.2371479971437Q1806.8985732007754 571.1713580694075 1799.0860739196914 573.8303490527941Q1791.3009869167863 576.4893400361807 1781.624452719513 576.4893400361807ZM1769.7823485460804 459.438912210811L1784.7768647101261 426.4893538393603L1801.964363128512 426.4893538393603L1782.6112947339661 459.438912210811L1769.7823485460804 459.438912210811ZM1861.7505418374421 452.1472462151322L1877.5400140686866 447.8161062628118L1877.5400140686866 547.2678514971071Q1877.5400140686866 554.5869297709652 1881.6792680737522 558.1231136560875Q1885.845934356997 561.6867098193892 1892.342644285478 561.6867098193892L1892.342644285478 561.6867098193892Q1898.0718104249395 561.6867098193892 1902.2110644300055 559.7130257904837Q1906.3503184350711 557.7393417615781 1909.7220286511183 554.3950438237105L1909.7220286511183 554.3950438237105L1915.2318965651461 567.6077619061058Q1910.7088706655709 571.7470159111716 1904.4862835188828 574.1318841127658Q1898.2636963721943 576.4893400361807 1890.1770743093175 576.4893400361807L1890.1770743093175 576.4893400361807Q1882.6661100882047 576.4893400361807 1876.1694001597243 573.8303490527941Q1869.6452779530641 571.1713580694075 1865.8075590079702 565.3325428172286Q1861.9424277846965 559.521139843229 1861.7505418374421 550.0364915932107L1861.7505418374421 550.0364915932107L1861.7505418374421 452.1472462151322ZM1842.013701548387 475.8314545619986L1913.4775107616747 475.8314545619986L1913.4775107616747 489.4553568170826L1842.013701548387 489.4553568170826L1842.013701548387 475.8314545619986ZM1944.8371569987294 456.88957034014135L1944.8371569987294 456.88957034014135Q1939.519175031956 456.88957034014135 1936.2571139286256 453.62750923681136Q1932.9950528252957 450.36544813348144 1932.9950528252957 445.0474661667082L1932.9950528252957 445.0474661667082Q1932.9950528252957 439.70207192175565 1936.2571139286256 436.467423096605Q1939.519175031956 433.205361993275 1944.8371569987294 433.205361993275L1944.8371569987294 433.205361993275Q1950.1825512436817 433.205361993275 1953.4446123470116 436.467423096605Q1956.6792611721621 439.70207192175565 1956.6792611721621 445.0474661667082L1956.6792611721621 445.0474661667082Q1956.6792611721621 450.36544813348144 1953.4446123470116 453.62750923681136Q1950.1825512436817 456.88957034014135 1944.8371569987294 456.88957034014135ZM1936.942420883107 475.8314545619986L1952.7318931143514 475.8314545619986L1952.7318931143514 574.5156560072752L1936.942420883107 574.5156560072752L1936.942420883107 475.8314545619986ZM2030.3086403616103 473.85777053309306L2030.3086403616103 473.85777053309306Q2040.560832400647 473.85777053309306 2048.373331681732 477.0101825237061Q2056.1584186846367 480.16259451431904 2061.8875848240987 486.0836466010357Q2067.6167509635607 492.00469868775224 2071.152934848683 500.1187330288083L2071.152934848683 500.1187330288083L2056.1584186846367 507.2185130772324Q2053.006006694024 497.7338648272141 2046.5915336000808 492.7174179204126Q2040.1770605061379 487.6735587354318 2029.924868467101 487.6735587354318L2029.924868467101 487.6735587354318Q2020.0564483225735 487.6735587354318 2012.92925599597 492.1143478004692Q2005.8294759475457 496.5551368655067 2002.0739938369893 504.9432939883552Q1998.3459240046122 513.3314511112037 1998.3459240046122 525.1735552846369L1998.3459240046122 525.1735552846369Q1998.3459240046122 536.8237735108154 2002.0739938369893 545.2941674682016Q2005.8294759475457 553.7919737037671 2012.92925599597 558.2327627688045Q2020.0564483225735 562.673551833842 2029.924868467101 562.673551833842L2029.924868467101 562.673551833842Q2037.600306357289 562.673551833842 2043.247235662213 560.3160959104271Q2048.866752688958 557.9312277088329 2052.5125856867976 553.4082018092577Q2056.1584186846367 548.8577636315033 2057.5564448717782 542.3336414248433L2057.5564448717782 542.3336414248433L2072.139776863136 547.4871497225411Q2068.795478925268 556.5606137998707 2062.9840759512686 563.0573237283513Q2057.1452606990897 569.5814459350114 2048.9489895234956 573.035392985596Q2040.7801306260812 576.4893400361807 2030.3086403616103 576.4893400361807L2030.3086403616103 576.4893400361807Q2016.4928521592715 576.4893400361807 2005.6375900002909 570.3764020022094Q1994.7823278413107 564.263463968238 1988.669389807339 552.6954825765973Q1982.5564517733678 541.1549134631358 1982.5564517733678 525.1735552846369L1982.5564517733678 525.1735552846369Q1982.5564517733678 509.19219710613794 1988.669389807339 497.6516279926764Q1994.7823278413107 486.0836466010357 2005.6375900002909 479.9707085670644Q2016.4928521592715 473.85777053309306 2030.3086403616103 473.85777053309306ZM2157.611260226017 538.0025014725229L2157.611260226017 510.7546969623548Q2157.611260226017 499.7075488561197 2151.6902081393 493.7042599348654Q2145.7691560525836 487.6735587354318 2134.913893893603 487.6735587354318L2134.913893893603 487.6735587354318Q2124.6617018545667 487.6735587354318 2117.534509527963 492.1143478004692Q2110.434729479539 496.5551368655067 2107.0904315416715 506.4235570100343L2107.0904315416715 506.4235570100343L2094.2614853537852 498.5288208944122Q2098.2088534115965 487.4816727881771 2108.872229623322 480.65601552154544Q2119.5081935568687 473.85777053309306 2135.2976657881127 473.85777053309306L2135.2976657881127 473.85777053309306Q2145.9610419998385 473.85777053309306 2154.6507341826587 477.5036035309324Q2163.340426365479 481.14943652877184 2168.35687327228 488.5507516371676Q2173.4007324572613 495.95206674556334 2173.4007324572613 507.6022849717418L2173.4007324572613 507.6022849717418L2173.4007324572613 555.3818858381632Q2173.4007324572613 562.4816658865873 2180.911696678374 562.4816658865873L2180.911696678374 562.4816658865873Q2184.639766510751 562.4816658865873 2188.2033626740526 561.4948238721345L2188.2033626740526 561.4948238721345L2187.408406606855 573.9125858873318Q2183.4610385490437 575.8862699162373 2177.1562145678176 575.8862699162373L2177.1562145678176 575.8862699162373Q2171.4270484283556 575.8862699162373 2166.876610250601 573.7206999400771Q2162.3535843510263 571.5551299639169 2159.7768302021773 567.1143408988794Q2157.2274883315076 562.673551833842 2157.2274883315076 555.9575436799273L2157.2274883315076 555.9575436799273L2157.2274883315076 553.9838596510218L2161.1748563893184 554.5869297709652Q2158.7899881877242 562.2897799393326 2153.0608220482627 567.1143408988794Q2147.35906818698 571.9389018584262 2140.2318758603765 574.2141209473035Q2133.1320958119527 576.4893400361807 2126.2242017107833 576.4893400361807L2126.2242017107833 576.4893400361807Q2117.534509527963 576.4893400361807 2110.0509575850297 573.5288139928224Q2102.539993363917 570.5682879494641 2098.099204298879 564.5375867500305Q2093.658415233842 558.5342978287762 2093.658415233842 549.6527196987013L2093.658415233842 549.6527196987013Q2093.658415233842 538.6055715924662 2101.0597303422373 531.3961424313252Q2108.4610454506333 524.1867132701841 2121.701175811208 521.6099591213352L2121.701175811208 521.6099591213352L2160.76367221663 513.9345212311471L2160.76367221663 526.9553533662877L2128.9928418068866 533.4520632947683Q2119.316307609614 535.4257473236739 2114.573983484605 538.9893434869756Q2109.859071637775 542.5529396502773 2109.859071637775 548.8577636315033L2109.859071637775 548.8577636315033Q2109.859071637775 554.9707016654745 2114.6836325973213 558.8358328887479Q2119.5081935568687 562.673551833842 2128.3897716869433 562.673551833842L2128.3897716869433 562.673551833842Q2134.1189378264053 562.673551833842 2139.3546829586408 561.1932888121628Q2144.5904280908762 559.7130257904837 2148.7296820959423 556.6428506344084Q2152.868936101008 553.6000877565124 2155.253804302602 548.9674127442202Q2157.611260226017 544.3073254537488 2157.611260226017 538.0025014725229L2157.611260226017 538.0025014725229Z " fill="#b05888" transform="matrix(0.3998713971464529,0,0,0.39987139714645287,0,99.46873523342151)"/></g></svg>